<svg xmlns="http://www.w3.org/2000/svg" xmlns:xlink="http://www.w3.org/1999/xlink" width="1080" zoomAndPan="magnify" viewBox="0 0 810 809.999993" height="1080" preserveAspectRatio="xMidYMid meet" version="1.0"><defs><clipPath id="3d8ead846d"><path d="M 0 26.507812 L 810 26.507812 L 810 729.257812 L 0 729.257812 Z M 0 26.507812 " clip-rule="nonzero"/></clipPath></defs><g clip-path="url(#3d8ead846d)"><path fill="#0cc0df" d="M 802.332031 666.324219 L 802.335938 666.316406 L 434.066406 46.699219 L 433.878906 46.6875 C 426.9375 34.683594 414.109375 26.507812 399.246094 26.507812 C 385.914062 26.507812 374.191406 33.074219 366.894531 43.066406 L 366.789062 43.0625 L 366.546875 43.484375 C 365.195312 45.386719 364.050781 47.429688 363.042969 49.5625 L 7.4375 666.582031 L 7.441406 666.589844 C 3.171875 672.972656 0.667969 680.632812 0.667969 688.886719 C 0.667969 711.058594 18.640625 729.03125 40.816406 729.03125 L 769.148438 729.03125 C 791.3125 729.03125 809.28125 711.058594 809.28125 688.886719 C 809.28125 680.519531 806.714844 672.757812 802.332031 666.324219 Z M 802.332031 666.324219 " fill-opacity="1" fill-rule="nonzero"/></g></svg>