<svg xmlns="http://www.w3.org/2000/svg" xmlns:xlink="http://www.w3.org/1999/xlink" width="1080" zoomAndPan="magnify" viewBox="0 0 810 809.999993" height="1080" preserveAspectRatio="xMidYMid meet" version="1.0"><defs><clipPath id="66defc85ce"><path d="M 0 53.753906 L 810 53.753906 L 810 756.503906 L 0 756.503906 Z M 0 53.753906 " clip-rule="nonzero"/></clipPath></defs><g clip-path="url(#66defc85ce)"><path fill="#8c52ff" d="M 802.332031 693.570312 L 802.335938 693.5625 L 434.066406 73.945312 L 433.878906 73.929688 C 426.9375 61.929688 414.109375 53.753906 399.246094 53.753906 C 385.914062 53.753906 374.191406 60.320312 366.894531 70.3125 L 366.789062 70.308594 L 366.546875 70.730469 C 365.195312 72.632812 364.050781 74.675781 363.042969 76.808594 L 7.4375 693.828125 L 7.441406 693.835938 C 3.171875 700.21875 0.667969 707.878906 0.667969 716.132812 C 0.667969 738.304688 18.640625 756.277344 40.816406 756.277344 L 769.148438 756.277344 C 791.3125 756.277344 809.28125 738.304688 809.28125 716.132812 C 809.28125 707.765625 806.714844 700.003906 802.332031 693.570312 Z M 802.332031 693.570312 " fill-opacity="1" fill-rule="nonzero"/></g></svg>