<svg xmlns="http://www.w3.org/2000/svg" xmlns:xlink="http://www.w3.org/1999/xlink" width="1080" zoomAndPan="magnify" viewBox="0 0 810 809.999993" height="1080" preserveAspectRatio="xMidYMid meet" version="1.0"><defs><clipPath id="9eb285a74b"><path d="M 0 53.753906 L 810 53.753906 L 810 756.503906 L 0 756.503906 Z M 0 53.753906 " clip-rule="nonzero"/></clipPath></defs><g clip-path="url(#9eb285a74b)"><path fill="#ed1c24" d="M 802.332031 693.816406 L 802.335938 693.804688 L 434.066406 73.953125 L 433.878906 73.9375 C 426.9375 61.933594 414.109375 53.753906 399.246094 53.753906 C 385.914062 53.753906 374.191406 60.324219 366.894531 70.316406 L 366.789062 70.3125 L 366.546875 70.734375 C 365.195312 72.640625 364.050781 74.683594 363.042969 76.816406 L 7.4375 694.070312 L 7.441406 694.082031 C 3.171875 700.464844 0.667969 708.128906 0.667969 716.386719 C 0.667969 738.566406 18.640625 756.546875 40.816406 756.546875 L 769.148438 756.546875 C 791.3125 756.546875 809.28125 738.566406 809.28125 716.386719 C 809.28125 708.015625 806.714844 700.25 802.332031 693.816406 Z M 802.332031 693.816406 " fill-opacity="1" fill-rule="nonzero"/></g></svg>